<svg width="62" height="62" viewBox="0 0 62 62" fill="none" xmlns="http://www.w3.org/2000/svg">
<g clip-path="url(#clip0_23918_1708)">
<path d="M62 31C62 13.8792 48.1208 0 31 0C13.8792 0 0 13.8792 0 31C0 48.1208 13.8792 62 31 62C48.1208 62 62 48.1208 62 31Z" fill="#F8931A"/>
<path fill-rule="evenodd" clip-rule="evenodd" d="M31 17.9375C26.4091 17.9375 22.6875 21.6591 22.6875 26.25C22.6875 30.8409 26.4091 34.5625 31 34.5625C35.5909 34.5625 39.3125 30.8409 39.3125 26.25C39.3125 21.6591 35.5909 17.9375 31 17.9375ZM20.3125 26.25C20.3125 20.3475 25.0975 15.5625 31 15.5625C36.9025 15.5625 41.6875 20.3475 41.6875 26.25C41.6875 32.1525 36.9025 36.9375 31 36.9375C25.0975 36.9375 20.3125 32.1525 20.3125 26.25Z" fill="white"/>
<path fill-rule="evenodd" clip-rule="evenodd" d="M31 36.9362C28.2899 36.9362 25.6276 37.6496 23.2807 39.0047C20.9337 40.3599 18.9849 42.309 17.63 44.6561C17.3022 45.2241 16.5759 45.4188 16.0079 45.0909C15.4399 44.7631 15.2453 44.0368 15.5731 43.4688C17.1364 40.7606 19.385 38.5116 22.0931 36.948C24.8011 35.3844 27.873 34.5612 31 34.5612C34.127 34.5612 37.199 35.3844 39.907 36.948C42.615 38.5116 44.8636 40.7606 46.4269 43.4688C46.7548 44.0368 46.5601 44.7631 45.9921 45.0909C45.4241 45.4188 44.6979 45.2241 44.37 44.6561C43.0152 42.309 41.0663 40.3599 38.7194 39.0047C36.3724 37.6496 33.7101 36.9362 31 36.9362Z" fill="white"/>
</g>
<defs>
<clipPath id="clip0_23918_1708">
<rect width="62" height="62" fill="white"/>
</clipPath>
</defs>
</svg>
