<svg width="62" height="62" viewBox="0 0 62 62" fill="none" xmlns="http://www.w3.org/2000/svg">
<path d="M62 31C62 13.8792 48.1208 0 31 0C13.8792 0 0 13.8792 0 31C0 48.1208 13.8792 62 31 62C48.1208 62 62 48.1208 62 31Z" fill="#BD47FC"/>
<path fill-rule="evenodd" clip-rule="evenodd" d="M30.3776 15.7387C30.7593 15.5038 31.2407 15.5038 31.6224 15.7387L47.0599 25.2387C47.5123 25.5171 47.7248 26.0622 47.5801 26.5734C47.4354 27.0846 46.9688 27.4375 46.4375 27.4375H15.5625C15.0312 27.4375 14.5646 27.0846 14.4199 26.5734C14.2752 26.0622 14.4877 25.5171 14.9401 25.2387L30.3776 15.7387ZM19.758 25.0625H42.242L31 18.1443L19.758 25.0625Z" fill="white"/>
<path fill-rule="evenodd" clip-rule="evenodd" d="M20.3125 25.0625C20.9683 25.0625 21.5 25.5942 21.5 26.25V38.125C21.5 38.7808 20.9683 39.3125 20.3125 39.3125C19.6567 39.3125 19.125 38.7808 19.125 38.125V26.25C19.125 25.5942 19.6567 25.0625 20.3125 25.0625Z" fill="white"/>
<path fill-rule="evenodd" clip-rule="evenodd" d="M27.4375 25.0625C28.0933 25.0625 28.625 25.5942 28.625 26.25V38.125C28.625 38.7808 28.0933 39.3125 27.4375 39.3125C26.7817 39.3125 26.25 38.7808 26.25 38.125V26.25C26.25 25.5942 26.7817 25.0625 27.4375 25.0625Z" fill="white"/>
<path fill-rule="evenodd" clip-rule="evenodd" d="M34.5625 25.0625C35.2183 25.0625 35.75 25.5942 35.75 26.25V38.125C35.75 38.7808 35.2183 39.3125 34.5625 39.3125C33.9067 39.3125 33.375 38.7808 33.375 38.125V26.25C33.375 25.5942 33.9067 25.0625 34.5625 25.0625Z" fill="white"/>
<path fill-rule="evenodd" clip-rule="evenodd" d="M41.6875 25.0625C42.3433 25.0625 42.875 25.5942 42.875 26.25V38.125C42.875 38.7808 42.3433 39.3125 41.6875 39.3125C41.0317 39.3125 40.5 38.7808 40.5 38.125V26.25C40.5 25.5942 41.0317 25.0625 41.6875 25.0625Z" fill="white"/>
<path fill-rule="evenodd" clip-rule="evenodd" d="M15.5625 38.125C15.5625 37.4692 16.0942 36.9375 16.75 36.9375H45.25C45.9058 36.9375 46.4375 37.4692 46.4375 38.125C46.4375 38.7808 45.9058 39.3125 45.25 39.3125H16.75C16.0942 39.3125 15.5625 38.7808 15.5625 38.125Z" fill="white"/>
<path fill-rule="evenodd" clip-rule="evenodd" d="M13.1875 42.875C13.1875 42.2192 13.7192 41.6875 14.375 41.6875H47.625C48.2808 41.6875 48.8125 42.2192 48.8125 42.875C48.8125 43.5308 48.2808 44.0625 47.625 44.0625H14.375C13.7192 44.0625 13.1875 43.5308 13.1875 42.875Z" fill="white"/>
</svg>
