<svg width="24" height="40" viewBox="0 0 24 40" fill="none" xmlns="http://www.w3.org/2000/svg">
<g clip-path="url(#clip0_24008_2741)">
<path fill-rule="evenodd" clip-rule="evenodd" d="M17.6569 25.6568C17.2663 26.0473 16.6332 26.0473 16.2426 25.6568L6.34315 15.7573C5.95262 15.3668 5.95262 14.7336 6.34315 14.3431C6.73367 13.9526 7.36683 13.9526 7.75736 14.3431L17.6569 24.2426C18.0474 24.6331 18.0474 25.2663 17.6569 25.6568Z" fill="white"/>
<path fill-rule="evenodd" clip-rule="evenodd" d="M17.6569 14.3432C18.0474 14.7337 18.0474 15.3669 17.6569 15.7574L7.75736 25.6569C7.36683 26.0474 6.73367 26.0474 6.34315 25.6569C5.95262 25.2664 5.95262 24.6332 6.34315 24.2427L16.2426 14.3432C16.6332 13.9527 17.2663 13.9527 17.6569 14.3432Z" fill="white"/>
</g>
<defs>
<clipPath id="clip0_24008_2741">
<rect width="24" height="40" fill="white"/>
</clipPath>
</defs>
</svg>
