<svg width="28" height="28" viewBox="0 0 28 28" fill="none" xmlns="http://www.w3.org/2000/svg">
<path d="M10.5 17.0625C11.2249 17.0625 11.8125 16.4749 11.8125 15.75C11.8125 15.0251 11.2249 14.4375 10.5 14.4375C9.77513 14.4375 9.1875 15.0251 9.1875 15.75C9.1875 16.4749 9.77513 17.0625 10.5 17.0625Z" fill="white"/>
<path d="M17.5 17.0625C18.2249 17.0625 18.8125 16.4749 18.8125 15.75C18.8125 15.0251 18.2249 14.4375 17.5 14.4375C16.7751 14.4375 16.1875 15.0251 16.1875 15.75C16.1875 16.4749 16.7751 17.0625 17.5 17.0625Z" fill="white"/>
<path fill-rule="evenodd" clip-rule="evenodd" d="M13.9935 8.75001C12.0967 8.73598 10.2093 9.01769 8.39919 9.58499C7.93805 9.72951 7.44707 9.47285 7.30255 9.01172C7.15803 8.55059 7.41469 8.05961 7.87582 7.91508C9.85736 7.29405 11.9235 6.98533 14 7.00001C16.0765 6.98533 18.1426 7.29405 20.1242 7.91508C20.5853 8.05961 20.842 8.55059 20.6975 9.01172C20.5529 9.47285 20.0619 9.72951 19.6008 9.58499C17.7907 9.01769 15.9033 8.73598 14.0065 8.75001H13.9935Z" fill="white"/>
<path fill-rule="evenodd" clip-rule="evenodd" d="M7.30255 18.9883C7.44707 18.5272 7.93805 18.2705 8.39919 18.415C10.2093 18.9823 12.0967 19.264 13.9935 19.25H14.0065C15.9033 19.264 17.7907 18.9823 19.6008 18.415C20.0619 18.2705 20.5529 18.5272 20.6975 18.9883C20.842 19.4494 20.5853 19.9404 20.1242 20.0849C18.1426 20.706 16.0765 21.0147 14 21C11.9235 21.0147 9.85736 20.706 7.87582 20.0849C7.41469 19.9404 7.15803 19.4494 7.30255 18.9883Z" fill="white"/>
<path fill-rule="evenodd" clip-rule="evenodd" d="M17.6925 4.20969C18.0691 3.99733 18.5107 3.93097 18.9331 4.02323C20.0859 4.27308 21.2147 4.62358 22.3062 5.07071C22.5519 5.16546 22.7726 5.31547 22.9512 5.50921C23.1316 5.70504 23.2641 5.94013 23.338 6.19588L27.0444 18.5722C27.141 18.8946 27.1433 19.238 27.0508 19.5617C26.9583 19.8853 26.775 20.1757 26.5226 20.3984L26.5181 20.4024C24.7091 21.9764 22.2579 23.1679 19.4737 23.8504C19.0869 23.9489 18.6779 23.9106 18.3161 23.7418C17.9558 23.5736 17.6646 23.2864 17.4915 22.9288L16.1718 20.3112C15.9542 19.8796 16.1277 19.3535 16.5592 19.1359C16.9907 18.9184 17.5169 19.0918 17.7344 19.5233L19.0579 22.1483L19.0588 22.1503C21.6295 21.5199 23.8119 20.4374 25.3694 19.0821L25.9437 19.7422L25.3648 19.0861C25.3664 19.0847 25.3676 19.0829 25.3681 19.0809C25.3687 19.0789 25.3687 19.0768 25.3681 19.0748L21.6615 6.6977C21.6584 6.69647 21.6553 6.69522 21.6522 6.69395C20.6522 6.28368 19.618 5.96223 18.5616 5.73334L18.5597 5.73292C18.557 5.73235 18.5543 5.73276 18.552 5.73408C18.5498 5.73527 18.5482 5.73712 18.5473 5.73933L17.6855 8.34654C17.5338 8.80538 17.0389 9.05439 16.5801 8.90272C16.1212 8.75106 15.8722 8.25615 16.0239 7.79732L16.8905 5.17565C17.03 4.76606 17.3155 4.42221 17.6925 4.20969Z" fill="white"/>
<path fill-rule="evenodd" clip-rule="evenodd" d="M9.448 5.73408C9.44566 5.73276 9.44292 5.73235 9.44029 5.73292L9.43839 5.73334C8.38197 5.96223 7.34775 6.28368 6.34771 6.69395C6.34462 6.69522 6.34153 6.69647 6.33843 6.6977L2.63194 19.0745C2.63134 19.0765 2.63126 19.0789 2.63183 19.0809C2.63235 19.0827 2.63332 19.0844 2.63465 19.0857C4.19188 20.4393 6.37272 21.5204 8.94115 22.1503L8.94209 22.1483L10.2655 19.5233C10.4831 19.0918 11.0093 18.9184 11.4408 19.1359C11.8723 19.3535 12.0457 19.8797 11.8282 20.3112L10.5084 22.9288C10.3353 23.2864 10.0441 23.5736 9.68381 23.7418C9.32203 23.9106 8.91302 23.9489 8.52628 23.8504C5.74209 23.1679 3.29089 21.9764 1.48186 20.4023L1.47732 20.3984C1.22492 20.1757 1.04163 19.8853 0.949163 19.5617C0.856715 19.2381 0.858916 18.8948 0.955504 18.5725C0.955479 18.5726 0.955528 18.5724 0.955504 18.5725L4.66191 6.1959C4.73587 5.94014 4.8683 5.70504 5.04877 5.50921C5.22732 5.31546 5.44802 5.16545 5.69372 5.07071C6.7856 4.62346 7.91463 4.27288 9.06781 4.02302C9.48993 3.93107 9.93114 3.99749 10.3075 4.20969C10.6844 4.42221 10.9699 4.76607 11.1095 5.17566L11.112 5.18324L11.9761 7.79732C12.1277 8.25615 11.8787 8.75106 11.4199 8.90272C10.9611 9.05439 10.4662 8.80538 10.3145 8.34654L9.4527 5.73932C9.45176 5.73711 9.45011 5.73527 9.448 5.73408Z" fill="white"/>
<path d="M10.5 17.0625C11.2249 17.0625 11.8125 16.4749 11.8125 15.75C11.8125 15.0251 11.2249 14.4375 10.5 14.4375C9.77513 14.4375 9.1875 15.0251 9.1875 15.75C9.1875 16.4749 9.77513 17.0625 10.5 17.0625Z" fill="white"/>
<path d="M17.5 17.0625C18.2249 17.0625 18.8125 16.4749 18.8125 15.75C18.8125 15.0251 18.2249 14.4375 17.5 14.4375C16.7751 14.4375 16.1875 15.0251 16.1875 15.75C16.1875 16.4749 16.7751 17.0625 17.5 17.0625Z" fill="white"/>
<path fill-rule="evenodd" clip-rule="evenodd" d="M13.9935 8.75001C12.0967 8.73598 10.2093 9.01769 8.39919 9.58499C7.93805 9.72951 7.44707 9.47285 7.30255 9.01172C7.15803 8.55059 7.41469 8.05961 7.87582 7.91508C9.85736 7.29405 11.9235 6.98533 14 7.00001C16.0765 6.98533 18.1426 7.29405 20.1242 7.91508C20.5853 8.05961 20.842 8.55059 20.6975 9.01172C20.5529 9.47285 20.0619 9.72951 19.6008 9.58499C17.7907 9.01769 15.9033 8.73598 14.0065 8.75001H13.9935Z" fill="white"/>
<path fill-rule="evenodd" clip-rule="evenodd" d="M7.30255 18.9883C7.44707 18.5272 7.93805 18.2705 8.39919 18.415C10.2093 18.9823 12.0967 19.264 13.9935 19.25H14.0065C15.9033 19.264 17.7907 18.9823 19.6008 18.415C20.0619 18.2705 20.5529 18.5272 20.6975 18.9883C20.842 19.4494 20.5853 19.9404 20.1242 20.0849C18.1426 20.706 16.0765 21.0147 14 21C11.9235 21.0147 9.85736 20.706 7.87582 20.0849C7.41469 19.9404 7.15803 19.4494 7.30255 18.9883Z" fill="white"/>
<path fill-rule="evenodd" clip-rule="evenodd" d="M17.6925 4.20969C18.0691 3.99733 18.5107 3.93097 18.9331 4.02323C20.0859 4.27308 21.2147 4.62358 22.3062 5.07071C22.5519 5.16546 22.7726 5.31547 22.9512 5.50921C23.1316 5.70504 23.2641 5.94013 23.338 6.19588L27.0444 18.5722C27.141 18.8946 27.1433 19.238 27.0508 19.5617C26.9583 19.8853 26.775 20.1757 26.5226 20.3984L26.5181 20.4024C24.7091 21.9764 22.2579 23.1679 19.4737 23.8504C19.0869 23.9489 18.6779 23.9106 18.3161 23.7418C17.9558 23.5736 17.6646 23.2864 17.4915 22.9288L16.1718 20.3112C15.9542 19.8796 16.1277 19.3535 16.5592 19.1359C16.9907 18.9184 17.5169 19.0918 17.7344 19.5233L19.0579 22.1483L19.0588 22.1503C21.6295 21.5199 23.8119 20.4374 25.3694 19.0821L25.9437 19.7422L25.3648 19.0861C25.3664 19.0847 25.3676 19.0829 25.3681 19.0809C25.3687 19.0789 25.3687 19.0768 25.3681 19.0748L21.6615 6.6977C21.6584 6.69647 21.6553 6.69522 21.6522 6.69395C20.6522 6.28368 19.618 5.96223 18.5616 5.73334L18.5597 5.73292C18.557 5.73235 18.5543 5.73276 18.552 5.73408C18.5498 5.73527 18.5482 5.73712 18.5473 5.73933L17.6855 8.34654C17.5338 8.80538 17.0389 9.05439 16.5801 8.90272C16.1212 8.75106 15.8722 8.25615 16.0239 7.79732L16.8905 5.17565C17.03 4.76606 17.3155 4.42221 17.6925 4.20969Z" fill="white"/>
<path fill-rule="evenodd" clip-rule="evenodd" d="M9.448 5.73408C9.44566 5.73276 9.44292 5.73235 9.44029 5.73292L9.43839 5.73334C8.38197 5.96223 7.34775 6.28368 6.34771 6.69395C6.34462 6.69522 6.34153 6.69647 6.33843 6.6977L2.63194 19.0745C2.63134 19.0765 2.63126 19.0789 2.63183 19.0809C2.63235 19.0827 2.63332 19.0844 2.63465 19.0857C4.19188 20.4393 6.37272 21.5204 8.94115 22.1503L8.94209 22.1483L10.2655 19.5233C10.4831 19.0918 11.0093 18.9184 11.4408 19.1359C11.8723 19.3535 12.0457 19.8797 11.8282 20.3112L10.5084 22.9288C10.3353 23.2864 10.0441 23.5736 9.68381 23.7418C9.32203 23.9106 8.91302 23.9489 8.52628 23.8504C5.74209 23.1679 3.29089 21.9764 1.48186 20.4023L1.47732 20.3984C1.22492 20.1757 1.04163 19.8853 0.949163 19.5617C0.856715 19.2381 0.858916 18.8948 0.955504 18.5725C0.955479 18.5726 0.955528 18.5724 0.955504 18.5725L4.66191 6.1959C4.73587 5.94014 4.8683 5.70504 5.04877 5.50921C5.22732 5.31546 5.44802 5.16545 5.69372 5.07071C6.7856 4.62346 7.91463 4.27288 9.06781 4.02302C9.48993 3.93107 9.93114 3.99749 10.3075 4.20969C10.6844 4.42221 10.9699 4.76607 11.1095 5.17566L11.112 5.18324L11.9761 7.79732C12.1277 8.25615 11.8787 8.75106 11.4199 8.90272C10.9611 9.05439 10.4662 8.80538 10.3145 8.34654L9.4527 5.73932C9.45176 5.73711 9.45011 5.73527 9.448 5.73408Z" fill="white"/>
</svg>
