<svg width="62" height="62" viewBox="0 0 62 62" fill="none" xmlns="http://www.w3.org/2000/svg">
<g clip-path="url(#clip0_23918_1758)">
<path d="M62 31C62 13.8792 48.1208 0 31 0C13.8792 0 0 13.8792 0 31C0 48.1208 13.8792 62 31 62C48.1208 62 62 48.1208 62 31Z" fill="#F72357"/>
<path fill-rule="evenodd" clip-rule="evenodd" d="M16.75 17.9375C17.4058 17.9375 17.9375 18.4692 17.9375 19.125V41.6875H45.25C45.9058 41.6875 46.4375 42.2192 46.4375 42.875C46.4375 43.5308 45.9058 44.0625 45.25 44.0625H16.75C16.0942 44.0625 15.5625 43.5308 15.5625 42.875V19.125C15.5625 18.4692 16.0942 17.9375 16.75 17.9375Z" fill="white"/>
<path fill-rule="evenodd" clip-rule="evenodd" d="M43.7147 20.6603C44.1784 21.1241 44.1784 21.8759 43.7147 22.3397L31.8397 34.2147C31.3759 34.6784 30.6241 34.6784 30.1603 34.2147L26.25 30.3044L17.5897 38.9647C17.1259 39.4284 16.3741 39.4284 15.9103 38.9647C15.4466 38.5009 15.4466 37.7491 15.9103 37.2853L25.4103 27.7853C25.8741 27.3216 26.6259 27.3216 27.0897 27.7853L31 31.6956L42.0353 20.6603C42.4991 20.1966 43.2509 20.1966 43.7147 20.6603Z" fill="white"/>
<path fill-rule="evenodd" clip-rule="evenodd" d="M35.75 21.5C35.75 20.8442 36.2817 20.3125 36.9375 20.3125H42.875C43.5308 20.3125 44.0625 20.8442 44.0625 21.5V27.4375C44.0625 28.0933 43.5308 28.625 42.875 28.625C42.2192 28.625 41.6875 28.0933 41.6875 27.4375V22.6875H36.9375C36.2817 22.6875 35.75 22.1558 35.75 21.5Z" fill="white"/>
</g>
<defs>
<clipPath id="clip0_23918_1758">
<rect width="62" height="62" fill="white"/>
</clipPath>
</defs>
</svg>
