<svg width="62" height="62" viewBox="0 0 62 62" fill="none" xmlns="http://www.w3.org/2000/svg">
<path d="M62 31C62 13.8792 48.1208 0 31 0C13.8792 0 0 13.8792 0 31C0 48.1208 13.8792 62 31 62C48.1208 62 62 48.1208 62 31Z" fill="#27C28A"/>
<path fill-rule="evenodd" clip-rule="evenodd" d="M20.3125 20.3125C19.9976 20.3125 19.6955 20.4376 19.4728 20.6603C19.2501 20.883 19.125 21.1851 19.125 21.5C19.125 21.8149 19.2501 22.117 19.4728 22.3397C19.6955 22.5624 19.9976 22.6875 20.3125 22.6875H44.0625C44.6924 22.6875 45.2965 22.9377 45.7419 23.3831C46.1873 23.8285 46.4375 24.4326 46.4375 25.0625V41.6875C46.4375 42.3174 46.1873 42.9215 45.7419 43.3669C45.2965 43.8123 44.6924 44.0625 44.0625 44.0625H20.3125C19.3677 44.0625 18.4615 43.6872 17.7934 43.0191C17.1253 42.351 16.75 41.4448 16.75 40.5V21.5C16.75 20.5552 17.1253 19.649 17.7934 18.9809C18.4615 18.3128 19.3677 17.9375 20.3125 17.9375H40.5C41.1558 17.9375 41.6875 18.4692 41.6875 19.125C41.6875 19.7808 41.1558 20.3125 40.5 20.3125H20.3125ZM19.125 24.8588V40.5C19.125 40.8149 19.2501 41.117 19.4728 41.3397C19.6955 41.5624 19.9976 41.6875 20.3125 41.6875H44.0625V25.0625H20.3125C19.9041 25.0625 19.5029 24.9924 19.125 24.8588Z" fill="white"/>
<path d="M38.7188 35.1562C39.7025 35.1562 40.5 34.3588 40.5 33.375C40.5 32.3912 39.7025 31.5938 38.7188 31.5938C37.735 31.5938 36.9375 32.3912 36.9375 33.375C36.9375 34.3588 37.735 35.1562 38.7188 35.1562Z" fill="white"/>
</svg>
